<svg width="192" height="60" viewBox="0 0 192 60" fill="none" xmlns="http://www.w3.org/2000/svg">
<path d="M101.282 49.6116L98.7241 41.5235H84.3422L81.7846 49.6116H76.2174L88.3272 13.1852H94.6795L106.837 49.6116H101.27H101.282ZM91.5391 18.5336L85.7815 36.8421H97.2371L91.5272 18.5336H91.5391Z" fill="white"/>
<path d="M115.985 43.7272L110.596 49.6116V13.1852H115.985V43.7272Z" fill="white"/>
<path d="M191.07 39.9391L186.598 44.2393H156.906V39.9391H191.07ZM174.107 26.4073C173.893 26.8599 173.441 27.3483 172.763 27.8724C172.085 28.3965 171.228 29.0041 170.217 29.6949C169.123 30.4216 167.85 31.2197 166.411 32.0892C164.971 32.9588 163.282 33.9475 161.355 35.0434L158.869 31.0291C160.344 30.1952 161.819 29.3376 163.318 28.4442C164.817 27.5508 166.149 26.6932 167.327 25.8951C168.124 25.359 168.79 24.823 169.313 24.287C169.837 23.7509 170.253 23.1792 170.55 22.5836C170.86 21.9761 171.074 21.3328 171.216 20.6419C171.347 19.951 171.419 19.153 171.419 18.2715V14.1381H176.558V18.2715C176.558 19.153 176.629 19.9391 176.76 20.6419C176.891 21.3328 177.117 21.988 177.426 22.5836C177.735 23.1911 178.152 23.7509 178.663 24.287C179.187 24.823 179.841 25.359 180.65 25.8951C181.827 26.6932 183.16 27.5508 184.659 28.4442C186.157 29.3376 187.644 30.2072 189.108 31.0291L186.657 34.96C184.73 33.8641 183.053 32.8754 181.601 32.0058C180.162 31.1363 178.889 30.3382 177.795 29.6116C176.784 28.9207 175.975 28.3251 175.368 27.8248C174.761 27.3245 174.357 26.8599 174.143 26.3954H174.107V26.4073Z" fill="white"/>
<path d="M151.826 37.1994V45.3471L147.711 49.826V41.035H123.217V37.1994H151.838H151.826ZM141.192 19.284C141.192 20.368 140.966 21.4043 140.502 22.3811C140.038 23.3579 139.419 24.2155 138.622 24.954C137.837 25.6926 136.921 26.2763 135.874 26.7051C134.828 27.1458 133.709 27.3602 132.508 27.3602C131.306 27.3602 130.188 27.1458 129.141 26.7051C128.095 26.2643 127.179 25.6807 126.393 24.954C125.608 24.2155 124.978 23.3579 124.514 22.3811C124.05 21.4043 123.824 20.368 123.824 19.284C123.824 18.2 124.05 17.1637 124.514 16.1869C124.978 15.2101 125.596 14.3525 126.393 13.614C127.179 12.8754 128.095 12.2917 129.141 11.8629C130.188 11.4222 131.306 11.2078 132.508 11.2078C133.709 11.2078 134.828 11.4222 135.874 11.8629C136.921 12.3037 137.837 12.8873 138.622 13.614C139.407 14.3525 140.038 15.2101 140.502 16.1869C140.966 17.1637 141.192 18.2 141.192 19.284ZM136.957 19.284C136.957 18.0571 136.517 17.0207 135.648 16.1869C134.78 15.3412 133.733 14.9243 132.508 14.9243C131.283 14.9243 130.236 15.3412 129.367 16.1869C128.499 17.0327 128.059 18.069 128.059 19.284C128.059 20.499 128.499 21.5473 129.367 22.3811C130.236 23.2149 131.283 23.6437 132.508 23.6437C133.733 23.6437 134.78 23.2268 135.648 22.3811C136.517 21.5353 136.957 20.499 136.957 19.284ZM147.425 11.6485H151.826V35.9725H147.425V25.3233H142.488V21.5234H147.425V11.6485ZM121.909 29.8975C124.978 29.8975 127.69 29.8855 130.034 29.8617C132.377 29.8379 134.471 29.7903 136.326 29.7426C138.182 29.695 139.848 29.6235 141.323 29.5401C142.798 29.4567 144.178 29.3495 145.498 29.2185L145.855 33.2804C144.57 33.4353 143.107 33.5663 141.465 33.6616C139.824 33.7569 137.885 33.8284 135.672 33.8879V39.4746H130.664V33.9713C129.356 33.9951 127.976 34.007 126.536 34.007H121.921V29.9094L121.909 29.8975Z" fill="white"/>
<path d="M4.84325 56.1406V60.0119H60.8601V3.919H56.9464V0H0.929565V56.0929L4.84325 56.1406ZM28.3373 53.9964H3.047V2.12031H54.829V27.4687L28.3373 53.9964Z" fill="#4B1ED6"/>
<path d="M54.3769 42.3705L51.3078 50.1847L50.5227 42.3705H46.4306L42.731 50.0656L42.6597 42.3705H39.9475L54.829 27.4688V3.91905V2.12036H3.047V53.9965L4.84325 54.0203L28.3373 53.9965L38.52 43.788L39.0196 58.0584H43.2901L47.1681 49.6487L48.0127 58.0584H52.2833L58.933 42.3705H54.3769Z" fill="white"/>
<mask id="mask0_85_195" style="mask-type:luminance" maskUnits="userSpaceOnUse" x="5" y="3" width="47" height="48">
<path d="M51.1056 25.9082L26.2079 50.6015L5.33093 50.2442V3.46631H51.8193L51.1056 25.9082Z" fill="white"/>
</mask>
<g mask="url(#mask0_85_195)">
<path d="M48.4291 19.7499H38.1869V47.6713H48.4291V19.7499Z" fill="#4B1ED6"/>
<path style="mix-blend-mode:multiply" opacity="0.6" d="M48.4291 18.5229H38.1869V47.6713H48.4291V18.5229Z" fill="url(#paint0_linear_85_195)"/>
<path d="M16.9055 47.6712H6.67517L20.8192 14.0321H31.0495L16.9055 47.6712Z" fill="#4B1ED6"/>
<path style="mix-blend-mode:multiply" opacity="0.6" d="M16.9055 47.6712H6.67517L20.8192 14.0321H31.0495L16.9055 47.6712Z" fill="url(#paint1_linear_85_195)"/>
<path d="M35.0345 47.6712H45.2767L31.1327 14.0321H20.8905L35.0345 47.6712Z" fill="#4B1ED6"/>
<path d="M37.2861 11.5341L43.1658 17.4218L49.0454 11.5341L43.1658 5.64646L37.2861 11.5341Z" fill="#4B1ED6"/>
</g>
<defs>
<linearGradient id="paint0_linear_85_195" x1="43.3139" y1="19.3806" x2="43.3139" y2="45.3365" gradientUnits="userSpaceOnUse">
<stop offset="0.12" stop-color="white" stop-opacity="0"/>
<stop offset="0.66"/>
</linearGradient>
<linearGradient id="paint1_linear_85_195" x1="11.255" y1="47.8022" x2="24.8945" y2="17.4885" gradientUnits="userSpaceOnUse">
<stop offset="0.12" stop-color="white" stop-opacity="0"/>
<stop offset="1"/>
</linearGradient>
</defs>
</svg>
