<?xml version="1.0" encoding="UTF-8"?>
<svg xmlns="http://www.w3.org/2000/svg" version="1.1" xmlns:xlink="http://www.w3.org/1999/xlink" viewBox="0 0 304 67">
  <defs>
    <style>
      .cls-1 {
        fill: #3b424c;
      }

      .cls-2 {
        opacity: .9;
      }

      .cls-2, .cls-3, .cls-4 {
        fill: #fff;
      }

      .cls-5 {
        fill: url(#_무제_그라디언트_37);
      }

      .cls-3 {
        opacity: .3;
      }

      .cls-6 {
        fill: #6650ea;
      }

      .cls-4 {
        opacity: .6;
      }
    </style>
    <linearGradient id="_무제_그라디언트_37" data-name="무제 그라디언트 37" x1="55.29" y1="63.67" x2="21.29" y2="5.79" gradientUnits="userSpaceOnUse">
      <stop offset="0" stop-color="#241a82"/>
      <stop offset=".05" stop-color="#34279b"/>
      <stop offset=".14" stop-color="#4938bd"/>
      <stop offset=".22" stop-color="#5945d6"/>
      <stop offset=".29" stop-color="#624de4"/>
      <stop offset=".35" stop-color="#6650ea"/>
      <stop offset=".43" stop-color="#6d50e2"/>
      <stop offset=".55" stop-color="#8352cd"/>
      <stop offset=".71" stop-color="#a755ab"/>
      <stop offset=".88" stop-color="#d85a7c"/>
      <stop offset="1" stop-color="#ff5e57"/>
    </linearGradient>
  </defs>
  <!-- Generator: Adobe Illustrator 28.7.3, SVG Export Plug-In . SVG Version: 1.2.0 Build 164)  -->
  <g>
    <g id="_레이어_1" data-name="레이어_1">
      <g>
        <g>
          <path class="cls-6" d="M96.06,49.82l11.95-33.94c.16-.45.58-.74,1.05-.74h6.42c.47,0,.89.3,1.05.74l12,33.94c.26.72-.28,1.48-1.05,1.48h-4.57c-.48,0-.9-.3-1.05-.76l-2.51-7.43c-.15-.45-.58-.76-1.05-.76h-12.01c-.48,0-.9.31-1.05.76l-2.49,7.42c-.15.45-.58.76-1.05.76h-4.57c-.77,0-1.3-.76-1.05-1.48ZM115.79,37.12c.76,0,1.3-.75,1.05-1.47l-4.42-13.12h-.3l-4.4,13.12c-.24.72.29,1.47,1.05,1.47h7.02Z"/>
          <path class="cls-6" d="M146.73,28.43h.3l7.72-12.75c.2-.33.56-.54.95-.54h4.77c.87,0,1.4.95.95,1.7l-9.73,15.8c-.22.36-.22.82,0,1.17l9.9,15.79c.46.74-.07,1.7-.94,1.7h-4.91c-.39,0-.75-.2-.95-.53l-7.77-12.66h-.3l-7.77,12.66c-.2.33-.56.53-.95.53h-4.85c-.88,0-1.41-.97-.94-1.71l9.98-15.78c.23-.36.23-.82,0-1.18l-9.86-15.79c-.46-.74.07-1.7.94-1.7h4.85c.39,0,.75.21.95.54l7.62,12.74Z"/>
          <path class="cls-1" d="M168.33,24.18h4.15c.51,0,.95.35,1.08.84l4.58,18.24h.25l4.63-18.24c.13-.49.57-.84,1.08-.84h4.72c.51,0,.95.34,1.08.83l4.68,18.15h.25l4.53-18.14c.12-.5.57-.84,1.08-.84h4.15c.74,0,1.27.71,1.07,1.42l-7.06,24.9c-.14.48-.57.81-1.07.81h-4.96c-.5,0-.94-.33-1.07-.82l-4.87-17.57h-.35l-4.87,17.57c-.13.48-.57.82-1.07.82h-4.96c-.5,0-.93-.33-1.07-.81l-7.06-24.9c-.2-.71.33-1.42,1.07-1.42Z"/>
          <path class="cls-1" d="M213.26,50.11c-1.96-1.16-3.48-2.8-4.55-4.91-1.07-2.11-1.6-4.55-1.6-7.33s.53-5.25,1.6-7.37c1.07-2.11,2.58-3.76,4.55-4.92,1.96-1.16,4.25-1.75,6.84-1.75s4.9.58,6.87,1.75c1.96,1.16,3.48,2.81,4.53,4.92,1.06,2.11,1.59,4.57,1.59,7.37s-.53,5.23-1.6,7.34c-1.07,2.11-2.58,3.75-4.53,4.91-1.96,1.16-4.24,1.74-6.86,1.74s-4.88-.58-6.84-1.75ZM223.72,45.59c.97-.78,1.71-1.85,2.2-3.2s.74-2.87.74-4.57-.25-3.2-.74-4.56c-.49-1.36-1.22-2.43-2.2-3.21-.97-.78-2.16-1.17-3.56-1.17s-2.64.39-3.63,1.17c-.99.78-1.73,1.85-2.22,3.2-.49,1.35-.74,2.87-.74,4.57s.25,3.22.74,4.57c.49,1.35,1.23,2.41,2.22,3.2s2.2,1.17,3.63,1.17,2.58-.39,3.56-1.17Z"/>
          <path class="cls-1" d="M237.1,24.18h3.97c.61,0,1.11.5,1.11,1.11v3.38h.3c.47-1.53,1.31-2.73,2.52-3.6,1.22-.87,2.61-1.3,4.17-1.3.46,0,.88.01,1.26.04.59.04,1.04.53,1.04,1.11v3.52c0,.68-.61,1.2-1.28,1.1,0,0-.01,0-.02,0-.58-.08-1.13-.12-1.65-.12-1.17,0-2.21.25-3.15.75s-1.66,1.2-2.2,2.1c-.53.9-.8,1.91-.8,3.05v14.87c0,.61-.5,1.11-1.11,1.11h-4.17c-.61,0-1.11-.5-1.11-1.11v-24.9c0-.61.5-1.11,1.11-1.11Z"/>
          <path class="cls-1" d="M256.38,15.14h4.17c.61,0,1.11.5,1.11,1.11v18.82h.45l9.41-10.52c.21-.24.51-.37.83-.37h4.45c.96,0,1.47,1.14.83,1.86l-8.24,9.16c-.35.39-.38.97-.07,1.4l9.36,12.94c.53.74,0,1.76-.9,1.76h-4.84c-.36,0-.7-.17-.9-.46l-7.22-10.07c-.41-.57-1.23-.62-1.71-.11l-1.12,1.19c-.19.21-.3.48-.3.76v7.59c0,.61-.5,1.11-1.11,1.11h-4.17c-.61,0-1.11-.5-1.11-1.11V16.26c0-.61.5-1.11,1.11-1.11Z"/>
          <path class="cls-1" d="M293.86,29.48c-.83-.6-1.91-.9-3.25-.9-.9,0-1.71.14-2.43.41s-1.29.66-1.69,1.15c-.4.49-.59,1.04-.57,1.64-.05,1.45,1.23,2.48,3.85,3.1l4.6.95c2.58.58,4.5,1.47,5.74,2.67s1.88,2.77,1.9,4.72c-.02,1.7-.5,3.2-1.45,4.51-.95,1.31-2.29,2.32-4.03,3.05-1.74.73-3.77,1.09-6.11,1.09-3.41,0-6.12-.73-8.13-2.19-1.63-1.18-2.7-2.74-3.23-4.68-.19-.71.33-1.42,1.07-1.42h4.28c.49,0,.9.32,1.06.78.27.77.74,1.37,1.41,1.8.87.57,2.05.86,3.53.86s2.76-.29,3.7-.87,1.4-1.37,1.4-2.37c0-.78-.32-1.43-.96-1.93-.64-.51-1.64-.91-2.98-1.21l-4.35-.95c-2.51-.5-4.42-1.39-5.71-2.67s-1.93-2.9-1.93-4.87c0-1.65.45-3.1,1.35-4.36s2.17-2.23,3.82-2.91,3.57-1.02,5.77-1.02,3.99.33,5.58.99c1.59.66,2.84,1.6,3.76,2.81.65.86,1.1,1.83,1.37,2.9.17.71-.35,1.39-1.08,1.39h-3.9c-.47,0-.87-.3-1.04-.74-.27-.69-.71-1.26-1.34-1.71Z"/>
        </g>
        <g>
          <path class="cls-5" d="M29.75,66.09l2.02-.3c3.67-.54,7.41-.55,11.08-.04l2.68.37c2.47.34,5.01.18,7.35-.68.58-.21,1.15-.46,1.7-.74,3.39-1.71,5.95-4.73,7.35-8.26l.76-1.91c1.39-3.49,3.28-6.77,5.61-9.73l1.43-1.82c1.75-2.23,2.97-4.87,3.3-7.69.04-.3.06-.61.08-.91.22-3.84-1.15-7.6-3.55-10.6l-1.02-1.27c-2.48-3.09-4.48-6.54-5.92-10.23l-.66-1.69c-1.4-3.57-3.97-6.62-7.39-8.34-.27-.14-.55-.27-.83-.39-2.64-1.14-5.57-1.4-8.41-.96l-1.88.29c-4.07.63-8.21.61-12.28-.05l-1.18-.19c-3.5-.57-7.14-.05-10.21,1.72-1.65.96-3.14,2.21-4.36,3.72-.8.98-1.42,2.09-1.94,3.25l-1.95,4.36c-1.14,2.55-2.55,4.98-4.21,7.23l-2.36,3.21c-.83,1.12-1.54,2.33-2.02,3.64-1.26,3.46-1.27,7.27-.01,10.73.49,1.35,1.23,2.59,2.08,3.73l2.56,3.43c2.01,2.7,3.67,5.64,4.93,8.76l.71,1.75c1.41,3.5,3.96,6.48,7.33,8.19.28.14.57.28.86.4,2.62,1.13,5.53,1.4,8.35.98Z"/>
          <rect class="cls-4" x="31.21" y="7.87" width="12.75" height="52.03" rx="6.38" ry="6.38" transform="translate(21.98 -14.26) rotate(30)"/>
          <rect class="cls-2" x="31.21" y="7.87" width="12.75" height="52.03" rx="6.38" ry="6.38" transform="translate(87.09 44.43) rotate(150)"/>
          <rect class="cls-3" x="32.01" y="7.87" width="11.15" height="52.03" rx="5.58" ry="5.58" transform="translate(71.47 -3.71) rotate(90)"/>
        </g>
      </g>
    </g>
  </g>
</svg>