<?xml version="1.0" encoding="UTF-8"?>
<svg xmlns="http://www.w3.org/2000/svg" version="1.1" xmlns:xlink="http://www.w3.org/1999/xlink" viewBox="0 0 75 67">
  <defs>
    <style>
      .cls-1 {
        opacity: .9;
      }

      .cls-1, .cls-2, .cls-3 {
        fill: #fff;
      }

      .cls-4 {
        fill: url(#_무제_그라디언트_37);
      }

      .cls-2 {
        opacity: .3;
      }

      .cls-3 {
        opacity: .6;
      }
    </style>
    <linearGradient id="_무제_그라디언트_37" data-name="무제 그라디언트 37" x1="55.29" y1="63.67" x2="21.29" y2="5.79" gradientUnits="userSpaceOnUse">
      <stop offset="0" stop-color="#241a82"/>
      <stop offset=".05" stop-color="#34279b"/>
      <stop offset=".14" stop-color="#4938bd"/>
      <stop offset=".22" stop-color="#5945d6"/>
      <stop offset=".29" stop-color="#624de4"/>
      <stop offset=".35" stop-color="#6650ea"/>
      <stop offset=".43" stop-color="#6d50e2"/>
      <stop offset=".55" stop-color="#8352cd"/>
      <stop offset=".71" stop-color="#a755ab"/>
      <stop offset=".88" stop-color="#d85a7c"/>
      <stop offset="1" stop-color="#ff5e57"/>
    </linearGradient>
  </defs>
  <!-- Generator: Adobe Illustrator 28.7.3, SVG Export Plug-In . SVG Version: 1.2.0 Build 164)  -->
  <g>
    <g id="_레이어_1" data-name="레이어_1">
      <g>
        <path class="cls-4" d="M29.75,66.09l2.02-.3c3.67-.54,7.41-.55,11.08-.04l2.68.37c2.47.34,5.01.18,7.35-.68.58-.21,1.15-.46,1.7-.74,3.39-1.71,5.95-4.73,7.35-8.26l.76-1.91c1.39-3.49,3.28-6.77,5.61-9.73l1.43-1.82c1.75-2.23,2.97-4.87,3.3-7.69.04-.3.06-.61.08-.91.22-3.84-1.15-7.6-3.55-10.6l-1.02-1.27c-2.48-3.09-4.48-6.54-5.92-10.23l-.66-1.69c-1.4-3.57-3.97-6.62-7.39-8.34-.27-.14-.55-.27-.83-.39-2.64-1.14-5.57-1.4-8.41-.96l-1.88.29c-4.07.63-8.21.61-12.28-.05l-1.18-.19c-3.5-.57-7.14-.05-10.21,1.72-1.65.96-3.14,2.21-4.36,3.72-.8.98-1.42,2.09-1.94,3.25l-1.95,4.36c-1.14,2.55-2.55,4.98-4.21,7.23l-2.36,3.21c-.83,1.12-1.54,2.33-2.02,3.64-1.26,3.46-1.27,7.27-.01,10.73.49,1.35,1.23,2.59,2.08,3.73l2.56,3.43c2.01,2.7,3.67,5.64,4.93,8.76l.71,1.75c1.41,3.5,3.96,6.48,7.33,8.19.28.14.57.28.86.4,2.62,1.13,5.53,1.4,8.35.98Z"/>
        <rect class="cls-3" x="31.21" y="7.87" width="12.75" height="52.03" rx="6.38" ry="6.38" transform="translate(21.98 -14.26) rotate(30)"/>
        <rect class="cls-1" x="31.21" y="7.87" width="12.75" height="52.03" rx="6.38" ry="6.38" transform="translate(87.09 44.43) rotate(150)"/>
        <rect class="cls-2" x="32.01" y="7.87" width="11.15" height="52.03" rx="5.58" ry="5.58" transform="translate(71.47 -3.71) rotate(90)"/>
      </g>
    </g>
  </g>
</svg>