<?xml version="1.0" encoding="UTF-8"?>
<svg id="_레이어_1" xmlns="http://www.w3.org/2000/svg" version="1.1" viewBox="0 0 70 14">
  <!-- Generator: Adobe Illustrator 29.2.0, SVG Export Plug-In . SVG Version: 2.1.0 Build 108)  -->
  <defs>
    <style>
      .st0 {
        fill: #3b424c;
      }

      .st1 {
        fill: #6650ea;
      }
    </style>
  </defs>
  <g id="_레이어_11" data-name="_레이어_1">
    <g>
      <path class="st1" d="M1.5,13.1L5.4,2.1c0-.1.2-.2.3-.2h2.1c.2,0,.3,0,.3.2l3.9,11.1c0,.2,0,.5-.3.5h-1.5c-.2,0-.3,0-.3-.2l-.8-2.4c0-.1-.2-.2-.3-.2h-3.9c-.2,0-.3.1-.3.2l-.8,2.4c0,.1-.2.2-.3.2h-1.5c-.3,0-.4-.2-.3-.5h0ZM7.9,9c.2,0,.4-.2.3-.5l-1.4-4.3h0l-1.4,4.3c0,.2,0,.5.3.5h2.3Z"/>
      <path class="st1" d="M18,6.2h0l2.5-4.2c0-.1.2-.2.3-.2h1.6c.3,0,.5.3.3.6l-3.2,5.1c0,.1,0,.3,0,.4l3.2,5.1c.1.2,0,.6-.3.6h-1.6c-.1,0-.2,0-.3-.2l-2.5-4.1h0l-2.5,4.1c0,.1-.2.2-.3.2h-1.6c-.3,0-.5-.3-.3-.6l3.3-5.1c0-.1,0-.3,0-.4l-3.2-5.1c-.1-.2,0-.6.3-.6h1.6c.1,0,.2,0,.3.2l2.5,4.2h0Z"/>
      <path class="st0" d="M25,4.8h1.4c.2,0,.3.1.4.3l1.5,5.9h0l1.5-5.9c0-.2.2-.3.4-.3h1.5c.2,0,.3.1.4.3l1.5,5.9h0l1.5-5.9c0-.2.2-.3.4-.3h1.4c.2,0,.4.2.3.5l-2.3,8.1c0,.2-.2.3-.3.3h-1.6c-.2,0-.3-.1-.3-.3l-1.6-5.7h-.1l-1.6,5.7c0,.2-.2.3-.3.3h-1.6c-.2,0-.3-.1-.3-.3l-2.3-8.1c0-.2.1-.5.3-.5h0Z"/>
      <path class="st0" d="M39.7,13.2c-.6-.4-1.1-.9-1.5-1.6s-.5-1.5-.5-2.4.2-1.7.5-2.4c.3-.7.8-1.2,1.5-1.6.6-.4,1.4-.6,2.2-.6s1.6.2,2.2.6c.6.4,1.1.9,1.5,1.6.3.7.5,1.5.5,2.4s-.2,1.7-.5,2.4-.8,1.2-1.5,1.6c-.6.4-1.4.6-2.2.6s-1.6-.2-2.2-.6h0ZM43.1,11.8c.3-.3.6-.6.7-1s.2-.9.2-1.5,0-1-.2-1.5-.4-.8-.7-1c-.3-.3-.7-.4-1.2-.4s-.9.1-1.2.4-.6.6-.7,1c-.2.4-.2.9-.2,1.5s0,1,.2,1.5.4.8.7,1,.7.4,1.2.4.8-.1,1.2-.4Z"/>
      <path class="st0" d="M47.4,4.8h1.3c.2,0,.4.2.4.4v1.1h0c.2-.5.4-.9.8-1.2.4-.3.9-.4,1.4-.4s.3,0,.4,0c.2,0,.3.2.3.4v1.1c0,.2-.2.4-.4.4h0c-.2,0-.4,0-.5,0-.4,0-.7,0-1,.2s-.5.4-.7.7c-.2.3-.3.6-.3,1v4.8c0,.2-.2.4-.4.4h-1.4c-.2,0-.4-.2-.4-.4V5.2c0-.2.2-.4.4-.4h0Z"/>
      <path class="st0" d="M53.7,1.8h1.4c.2,0,.4.2.4.4v6.1h.1l3.1-3.4c0,0,.2-.1.3-.1h1.5c.3,0,.5.4.3.6l-2.7,3c-.1.1-.1.3,0,.5l3.1,4.2c.2.2,0,.6-.3.6h-1.6c-.1,0-.2,0-.3-.1l-2.4-3.3c-.1-.2-.4-.2-.6,0l-.4.4c0,0,0,.2,0,.2v2.5c0,.2-.2.4-.4.4h-1.4c-.2,0-.4-.2-.4-.4V2.2c0-.2.2-.4.4-.4h0Z"/>
      <path class="st0" d="M65.9,6.5c-.3-.2-.6-.3-1.1-.3s-.6,0-.8.1-.4.2-.6.4-.2.3-.2.5c0,.5.4.8,1.3,1l1.5.3c.8.2,1.5.5,1.9.9s.6.9.6,1.5c0,.6-.2,1-.5,1.5s-.7.8-1.3,1-1.2.4-2,.4c-1.1,0-2-.2-2.6-.7-.5-.4-.9-.9-1.1-1.5,0-.2.1-.5.3-.5h1.4c.2,0,.3.1.3.3,0,.3.2.4.5.6.3.2.7.3,1.2.3s.9,0,1.2-.3.5-.4.5-.8-.1-.5-.3-.6c-.2-.2-.5-.3-1-.4l-1.4-.3c-.8-.2-1.4-.5-1.9-.9s-.6-.9-.6-1.6.1-1,.4-1.4.7-.7,1.2-.9,1.2-.3,1.9-.3,1.3.1,1.8.3.9.5,1.2.9c.2.3.4.6.4.9,0,.2-.1.5-.4.5h-1.3c-.2,0-.3,0-.3-.2,0-.2-.2-.4-.4-.6h0Z"/>
    </g>
  </g>
</svg>