<svg width="25" height="25" viewBox="0 0 25 25" fill="none" xmlns="http://www.w3.org/2000/svg">
<g clip-path="url(#clip0_821_27316)">
<path d="M12.5001 6.25008C13.6459 6.25008 14.5834 7.18758 14.5834 8.33341C14.5834 9.47925 13.6459 10.4167 12.5001 10.4167C11.3542 10.4167 10.4167 9.47925 10.4167 8.33341C10.4167 7.18758 11.3542 6.25008 12.5001 6.25008ZM12.5001 16.6667C15.3126 16.6667 18.5417 18.0105 18.7501 18.7501H6.25008C6.48966 18.0001 9.698 16.6667 12.5001 16.6667ZM12.5001 4.16675C10.198 4.16675 8.33341 6.03133 8.33341 8.33341C8.33341 10.6355 10.198 12.5001 12.5001 12.5001C14.8022 12.5001 16.6667 10.6355 16.6667 8.33341C16.6667 6.03133 14.8022 4.16675 12.5001 4.16675ZM12.5001 14.5834C9.71883 14.5834 4.16675 15.9792 4.16675 18.7501V20.8334H20.8334V18.7501C20.8334 15.9792 15.2813 14.5834 12.5001 14.5834Z" fill="#3B82F6"/>
</g>
<defs>
<clipPath id="clip0_821_27316">
<rect width="25" height="25" fill="white"/>
</clipPath>
</defs>
</svg>
