<svg width="25" height="25" viewBox="0 0 25 25" fill="none" xmlns="http://www.w3.org/2000/svg">
<path d="M15.6249 4.16659V11.4583H5.38534L4.77075 12.0728L4.16659 12.677V4.16659H15.6249ZM16.6666 2.08325H3.12492C2.552 2.08325 2.08325 2.552 2.08325 3.12492V17.7083L6.24992 13.5416H16.6666C17.2395 13.5416 17.7083 13.0728 17.7083 12.4999V3.12492C17.7083 2.552 17.2395 2.08325 16.6666 2.08325ZM21.8749 6.24992H19.7916V15.6249H6.24992V17.7083C6.24992 18.2812 6.71867 18.7499 7.29159 18.7499H18.7499L22.9166 22.9166V7.29159C22.9166 6.71867 22.4478 6.24992 21.8749 6.24992Z" fill="#6650EA"/>
</svg>
