<?xml version="1.0" encoding="UTF-8"?>
<svg id="_레이어_1" data-name="레이어_1" xmlns="http://www.w3.org/2000/svg" version="1.1" viewBox="0 0 24 24">
  <!-- Generator: Adobe Illustrator 29.2.0, SVG Export Plug-In . SVG Version: 2.1.0 Build 108)  -->
  <defs>
    <style>
      .st0 {
        fill: #5f6368;
      }
    </style>
  </defs>
  <path class="st0" d="M4,15c-.8,0-1.5-.3-2.1-.9-.6-.6-.9-1.3-.9-2.1s.3-1.5.9-2.1c.6-.6,1.3-.9,2.1-.9v-2c0-.6.2-1,.6-1.4s.9-.6,1.4-.6h3c0-.8.3-1.5.9-2.1s1.3-.9,2.1-.9,1.5.3,2.1.9.9,1.3.9,2.1h3c.6,0,1,.2,1.4.6s.6.9.6,1.4v2c.8,0,1.5.3,2.1.9s.9,1.3.9,2.1-.3,1.5-.9,2.1-1.3.9-2.1.9v4c0,.6-.2,1-.6,1.4-.4.4-.9.6-1.4.6H6c-.6,0-1-.2-1.4-.6-.4-.4-.6-.9-.6-1.4v-4ZM9,13c.4,0,.8-.1,1.1-.4s.4-.6.4-1.1-.1-.8-.4-1.1-.6-.4-1.1-.4-.8.1-1.1.4-.4.6-.4,1.1.1.8.4,1.1.6.4,1.1.4ZM15,13c.4,0,.8-.1,1.1-.4s.4-.6.4-1.1-.1-.8-.4-1.1-.6-.4-1.1-.4-.8.1-1.1.4-.4.6-.4,1.1.1.8.4,1.1.6.4,1.1.4ZM9,17h6c.3,0,.5,0,.7-.3s.3-.4.3-.7,0-.5-.3-.7-.4-.3-.7-.3h-6c-.3,0-.5,0-.7.3s-.3.4-.3.7,0,.5.3.7.4.3.7.3ZM6,19h12V7H6v12Z"/>
</svg>